<svg width="107" height="21" viewBox="0 0 107 21" fill="none" xmlns="http://www.w3.org/2000/svg">
<path d="M16.7649 15.8613C15.4896 16.4889 14.2143 16.7172 12.8456 16.7172C8.67757 16.7172 5.78481 14.0641 5.78481 10.3271C5.78481 6.53296 8.67757 3.93699 12.9078 3.93699C15.1163 3.93699 16.9515 4.65017 18.5378 6.19064L21.7728 3.45203C19.6576 1.19839 16.4849 0.000244141 12.659 0.000244141C5.7226 0.000244141 0.683594 4.30784 0.683594 10.3271C0.683594 16.3463 5.7226 20.6539 12.5657 20.6539C15.6762 20.6539 18.9733 19.7696 21.3684 18.115V10.0133H16.7649V15.8613Z" fill="#2E2E2E"/>
<path d="M30.3417 6.9894V4.96397H25.7071V20.3116H30.5594V13.0657C30.5594 10.1274 32.3324 8.78661 35.0074 8.78661C35.3807 8.78661 35.6918 8.81514 36.0961 8.84367V4.73575C33.5144 4.73575 31.5237 5.50599 30.3417 6.9894Z" fill="#2E2E2E"/>
<path d="M46.7923 20.5398C52.1113 20.5398 55.9683 17.2592 55.9683 12.6378C55.9683 8.01638 52.1113 4.73575 46.7923 4.73575C41.4734 4.73575 37.5853 8.01638 37.5853 12.6378C37.5853 17.2592 41.4734 20.5398 46.7923 20.5398ZM46.7923 16.8883C44.3662 16.8883 42.4999 15.2908 42.4999 12.6378C42.4999 9.98475 44.3662 8.38723 46.7923 8.38723C49.2185 8.38723 51.0537 9.98475 51.0537 12.6378C51.0537 15.2908 49.2185 16.8883 46.7923 16.8883Z" fill="#2E2E2E"/>
<path d="M70.7004 4.96397L65.9102 15.4049L61.2756 4.96397H56.2677L63.2974 20.3116H68.3053L75.3661 4.96397H70.7004Z" fill="#2E2E2E"/>
<path d="M93.2828 12.6948C93.2828 7.75963 89.488 4.73575 84.5735 4.73575C79.4722 4.73575 75.6463 8.04491 75.6463 12.6378C75.6463 17.2021 79.41 20.5398 85.1956 20.5398C88.2127 20.5398 90.5456 19.684 92.1009 18.0579L89.5191 15.4905C88.3683 16.4889 87.093 16.9739 85.32 16.9739C82.7694 16.9739 80.9964 15.8043 80.5298 13.893H93.1895C93.2206 13.5221 93.2828 13.0372 93.2828 12.6948ZM84.6046 8.10196C86.7819 8.10196 88.3683 9.35715 88.7104 11.297H80.4676C80.8098 9.32863 82.3961 8.10196 84.6046 8.10196Z" fill="#2E2E2E"/>
<path d="M101.148 6.9894V4.96397H96.5134V20.3116H101.366V13.0657C101.366 10.1274 103.139 8.78661 105.814 8.78661C106.187 8.78661 106.498 8.81514 106.902 8.84367V4.73575C104.321 4.73575 102.33 5.50599 101.148 6.9894Z" fill="#2E2E2E"/>
</svg>
